<mxfile host="app.diagrams.net" modified="2024-06-11T11:27:31.080Z" agent="Mozilla/5.0 (Macintosh; Intel Mac OS X 10_15_7) AppleWebKit/537.36 (KHTML, like Gecko) Chrome/124.0.0.0 Safari/537.36" version="23.1.1" etag="X3F2T1pr7SseJaQQFHPL" type="github">
  <diagram name="Page-1" id="oWoPd8xM8o5g-MU7TjZ1">
    <mxGraphModel>
      <root>
        <mxCell id="0" />
        <mxCell id="1" parent="0" />
      </root>
    </mxGraphModel>
  </diagram>
</mxfile>
